<svg xmlns="http://www.w3.org/2000/svg" height="512pt" version="1.1" viewBox="0 0 512 512" width="512pt">
<path d="M 0.00 0.00 L 512.00 0.00 L 512.00 512.00 L 0.00 512.00 L 0.00 0.00 Z" fill="#e4bcf8" opacity="1.00" stroke="#e4bcf8" stroke-width="0.25" data-index="0" style="opacity: 1; visibility: hidden;"></path>
<path d="M 126.93 115.51 C 134.94 108.43 143.29 101.44 153.00 96.83 C 153.81 97.48 154.60 98.16 155.37 98.84 C 157.12 103.23 159.20 107.47 160.62 111.98 C 154.76 110.83 149.10 108.70 143.16 107.93 C 138.00 110.41 133.43 113.97 128.31 116.55 C 127.97 116.29 127.28 115.77 126.93 115.51 Z" fill="#faf5fc" opacity="1.00" stroke="#faf5fc" stroke-width="0.25" data-index="1" style="visibility: visible;"></path>
<path d="M 154.93 97.19 C 157.20 97.71 159.39 98.52 161.55 99.36 C 162.89 105.08 166.74 109.67 169.09 114.96 C 171.47 120.15 174.00 125.30 177.32 129.97 C 177.23 130.40 177.06 131.24 176.98 131.67 C 171.50 126.62 166.99 120.64 162.13 115.02 C 161.57 114.03 161.06 113.02 160.62 111.98 C 159.20 107.47 157.12 103.23 155.37 98.84 C 155.26 98.43 155.04 97.60 154.93 97.19 Z" fill="#112565" opacity="1.00" stroke="#112565" stroke-width="0.25" data-index="2" style="visibility: visible;"></path>
<path d="M 356.88 96.87 C 361.06 97.42 364.80 99.49 368.07 102.06 C 369.40 103.87 370.32 105.95 370.91 108.11 C 365.09 107.81 359.62 110.05 354.02 111.24 C 353.48 111.17 352.39 111.02 351.85 110.95 C 353.10 106.34 356.30 102.41 356.77 97.58 L 356.88 96.87 Z" fill="#6ad0f4" opacity="1.00" stroke="#6ad0f4" stroke-width="0.25" data-index="3" style="visibility: visible;"></path>
<path d="M 348.09 100.87 C 350.83 99.42 353.79 98.44 356.77 97.58 C 356.30 102.41 353.10 106.34 351.85 110.95 C 352.39 111.02 353.48 111.17 354.02 111.24 C 353.04 111.64 352.06 112.05 351.16 112.60 C 346.51 115.76 343.77 120.99 339.15 124.24 C 341.71 115.99 346.94 108.97 349.96 100.91 C 349.50 100.90 348.56 100.88 348.09 100.87 Z" fill="#653598" opacity="1.00" stroke="#653598" stroke-width="0.25" data-index="4" style="visibility: visible;"></path>
<path d="M 169.09 114.96 C 166.74 109.67 162.89 105.08 161.55 99.36 C 162.08 99.57 163.15 99.98 163.68 100.18 C 171.38 103.67 178.81 107.74 186.26 111.74 C 188.69 113.20 191.55 113.15 194.28 113.09 C 197.28 114.34 200.01 116.13 202.68 117.96 C 202.04 120.30 201.01 122.54 199.44 124.41 C 195.22 129.69 191.27 135.20 187.86 141.05 C 187.27 141.80 186.69 142.56 186.12 143.33 C 185.77 143.82 185.06 144.79 184.70 145.27 C 181.87 140.34 180.59 134.66 177.32 129.97 C 174.00 125.30 171.47 120.15 169.09 114.96 Z" fill="#080149" opacity="1.00" stroke="#080149" stroke-width="0.25" data-index="5" style="visibility: visible;"></path>
<path d="M 163.68 100.18 C 170.00 101.71 176.24 103.59 182.44 105.57 C 186.79 106.85 189.43 110.89 193.48 112.70 L 194.28 113.09 C 191.55 113.15 188.69 113.20 186.26 111.74 C 178.81 107.74 171.38 103.67 163.68 100.18 Z" fill="#5da3db" opacity="1.00" stroke="#5da3db" stroke-width="0.25" data-index="6" style="visibility: visible;"></path>
<path d="M 328.86 105.85 C 334.58 104.04 340.29 102.22 345.92 100.12 C 345.69 100.60 345.23 101.55 345.01 102.03 C 338.49 105.03 332.18 108.44 325.86 111.84 C 324.37 112.74 322.66 113.04 320.95 113.07 C 322.96 110.09 325.20 106.86 328.86 105.85 Z" fill="#fdf1fe" opacity="1.00" stroke="#fdf1fe" stroke-width="0.25" data-index="7" style="visibility: visible;"></path>
<path d="M 216.79 104.86 C 225.08 103.04 233.50 101.79 241.95 100.98 C 246.10 100.60 250.32 100.20 254.46 100.97 C 251.20 103.59 247.86 106.12 244.21 108.18 C 234.76 113.72 225.82 120.15 216.01 125.05 C 215.44 125.19 214.32 125.46 213.76 125.59 C 210.10 123.00 206.34 120.55 202.68 117.96 C 200.01 116.13 197.28 114.34 194.28 113.09 L 193.48 112.70 C 201.21 109.97 208.92 107.15 216.79 104.86 Z" fill="#9f25b2" opacity="1.00" stroke="#9f25b2" stroke-width="0.25" data-index="8" style="visibility: visible;"></path>
<path d="M 254.46 100.97 C 254.90 100.79 255.78 100.43 256.22 100.25 L 256.48 101.26 C 255.96 112.19 256.36 123.13 256.32 134.06 C 256.38 136.08 255.84 138.03 255.21 139.93 C 242.04 135.15 228.79 130.62 215.62 125.82 L 216.01 125.05 C 225.82 120.15 234.76 113.72 244.21 108.18 C 247.86 106.12 251.20 103.59 254.46 100.97 Z" fill="#540983" opacity="1.00" stroke="#540983" stroke-width="0.25" data-index="9" style="visibility: visible;"></path>
<path d="M 256.22 100.25 C 258.04 100.40 259.88 100.47 261.72 100.49 C 261.57 101.17 261.27 102.53 261.12 103.22 C 273.51 111.12 285.90 119.02 298.51 126.54 C 297.63 135.41 295.89 144.18 295.29 153.08 C 305.36 151.06 314.63 146.35 324.50 143.57 C 324.89 143.94 325.66 144.67 326.05 145.03 C 323.70 164.61 322.13 184.28 320.20 203.90 C 312.15 208.07 304.71 213.26 296.91 217.87 C 293.56 219.91 289.94 221.69 287.30 224.67 C 283.53 232.89 280.46 241.41 276.67 249.62 C 276.42 250.13 276.19 250.65 275.95 251.16 C 276.90 251.46 277.86 251.78 278.82 252.11 C 278.89 253.49 278.99 254.86 279.09 256.23 C 281.28 257.95 283.65 259.56 285.30 261.85 C 286.55 263.64 285.61 265.88 285.43 267.84 C 287.20 268.28 288.98 268.73 290.76 269.17 C 289.79 269.87 288.84 270.58 287.89 271.29 C 284.64 269.51 281.46 267.60 278.18 265.89 C 269.43 265.80 260.72 267.54 251.95 266.78 C 245.97 266.70 239.93 264.97 233.99 266.28 C 231.88 267.62 229.78 268.97 227.75 270.43 C 226.08 269.47 223.96 268.79 223.18 266.86 C 224.98 262.68 227.99 259.16 230.36 255.31 C 231.93 252.63 235.08 251.86 237.79 250.86 C 237.30 249.91 236.82 248.96 236.35 248.01 C 232.55 240.87 230.12 233.13 226.93 225.72 C 226.64 225.22 226.06 224.22 225.76 223.71 C 226.77 221.91 227.82 220.14 228.92 218.39 C 234.77 225.73 238.65 234.39 243.81 242.20 C 247.62 247.79 250.73 253.80 254.41 259.46 C 255.15 260.37 255.96 261.22 256.77 262.07 C 260.60 257.51 262.18 251.58 265.93 246.95 C 270.75 240.95 272.78 233.36 276.92 226.94 C 278.96 223.44 281.76 220.49 284.62 217.66 C 286.56 212.96 286.91 207.83 287.84 202.88 C 289.25 192.50 291.76 182.28 292.70 171.84 C 290.72 175.06 289.55 178.66 288.13 182.14 C 287.08 184.90 284.55 186.62 282.24 188.26 C 273.62 193.96 265.80 200.83 256.74 205.86 C 257.08 191.25 256.78 176.62 256.91 162.00 C 257.00 155.40 256.15 148.84 255.77 142.26 L 256.46 141.31 C 256.85 141.45 257.62 141.75 258.01 141.89 C 266.47 149.93 276.09 156.58 285.25 163.76 C 287.48 165.48 289.57 167.45 292.08 168.78 C 293.80 168.97 293.76 167.16 294.05 165.96 C 294.32 163.75 294.88 160.74 292.69 159.29 C 288.93 156.48 284.44 154.91 280.34 152.68 C 272.87 148.73 265.55 144.49 257.79 141.13 C 256.40 133.16 257.61 125.04 257.27 117.01 C 256.99 111.77 258.22 106.34 256.48 101.26 L 256.22 100.25 Z" fill="#08004b" opacity="1.00" stroke="#08004b" stroke-width="0.25" data-index="10" style="visibility: visible;"></path>
<path d="M 261.72 100.49 C 273.13 100.58 284.45 102.44 295.61 104.69 C 302.52 106.68 309.34 109.04 316.07 111.59 C 314.70 116.16 309.97 117.90 306.36 120.33 C 303.68 121.88 301.61 124.20 299.64 126.53 C 299.35 126.54 298.79 126.54 298.51 126.54 C 285.90 119.02 273.51 111.12 261.12 103.22 C 261.27 102.53 261.57 101.17 261.72 100.49 Z" fill="#1c0261" opacity="1.00" stroke="#1c0261" stroke-width="0.25" data-index="11" style="visibility: visible;"></path>
<path d="M 345.01 102.03 C 346.00 101.57 347.03 101.18 348.09 100.87 C 348.56 100.88 349.50 100.90 349.96 100.91 C 346.94 108.97 341.71 115.99 339.15 124.24 C 338.19 126.16 337.32 128.13 336.40 130.07 C 335.89 130.96 335.38 131.85 334.87 132.73 C 333.94 132.63 333.01 132.53 332.09 132.42 C 329.51 127.15 326.69 122.00 324.28 116.64 C 323.64 114.72 321.83 113.80 320.08 113.11 L 320.95 113.07 C 322.66 113.04 324.37 112.74 325.86 111.84 C 332.18 108.44 338.49 105.03 345.01 102.03 Z" fill="#2d0366" opacity="1.00" stroke="#2d0366" stroke-width="0.25" data-index="12" style="visibility: visible;"></path>
<path d="M 256.48 101.26 C 258.22 106.34 256.99 111.77 257.27 117.01 C 257.61 125.04 256.40 133.16 257.79 141.13 L 258.01 141.89 C 257.62 141.75 256.85 141.45 256.46 141.31 C 252.56 141.88 249.25 144.22 245.74 145.85 C 236.74 150.69 227.60 155.25 218.63 160.14 C 219.03 163.31 219.44 166.49 220.28 169.58 C 220.36 169.90 220.52 170.52 220.60 170.83 C 220.62 173.48 220.61 176.15 221.10 178.77 C 223.14 189.51 225.11 200.27 226.91 211.05 C 227.33 213.15 227.68 215.33 228.74 217.23 C 230.79 218.60 233.33 218.87 235.69 219.35 C 242.77 220.44 249.78 221.88 256.84 223.05 C 257.04 233.05 257.01 243.06 256.90 253.06 C 257.08 255.51 256.07 257.72 254.41 259.46 C 250.73 253.80 247.62 247.79 243.81 242.20 C 238.65 234.39 234.77 225.73 228.92 218.39 C 227.82 220.14 226.77 221.91 225.76 223.71 C 215.08 216.78 204.08 210.34 193.22 203.69 C 192.98 204.42 192.75 205.16 192.52 205.90 C 192.81 202.95 192.83 199.98 192.56 197.04 C 191.18 182.80 189.84 168.56 188.43 154.33 C 188.10 150.80 187.81 147.27 187.84 143.73 C 198.13 145.81 207.45 151.11 217.78 153.04 C 217.63 143.93 214.33 134.93 215.62 125.82 C 228.79 130.62 242.04 135.15 255.21 139.93 C 255.84 138.03 256.38 136.08 256.32 134.06 C 256.36 123.13 255.96 112.19 256.48 101.26 Z" fill="#2a0469" opacity="1.00" stroke="#2a0469" stroke-width="0.25" data-index="13" style="visibility: visible;"></path>
<path d="M 368.07 102.06 C 374.02 104.56 378.41 109.49 383.53 113.25 C 383.40 114.19 383.27 115.12 383.14 116.06 C 378.86 113.74 374.69 111.18 370.91 108.11 C 370.32 105.95 369.40 103.87 368.07 102.06 Z" fill="#bcecfc" opacity="1.00" stroke="#bcecfc" stroke-width="0.25" data-index="14" style="visibility: visible;"></path>
<path d="M 128.31 116.55 C 133.43 113.97 138.00 110.41 143.16 107.93 C 149.10 108.70 154.76 110.83 160.62 111.98 C 161.06 113.02 161.57 114.03 162.13 115.02 C 161.52 116.78 160.86 118.52 160.15 120.25 C 163.68 128.88 171.78 134.86 174.11 144.05 C 174.93 146.73 175.36 149.50 175.97 152.23 C 172.52 147.77 172.35 141.66 168.63 137.37 C 165.68 133.89 162.53 130.57 160.14 126.66 C 158.98 124.81 157.36 123.01 154.95 123.24 C 148.37 123.12 141.85 121.63 135.27 122.22 C 132.59 122.50 130.28 120.83 128.33 119.19 C 127.88 118.77 126.98 117.94 126.52 117.52 C 126.97 117.28 127.87 116.79 128.31 116.55 Z" fill="#110140" opacity="1.00" stroke="#110140" stroke-width="0.25" data-index="15" style="visibility: visible;"></path>
<path d="M 354.02 111.24 C 359.62 110.05 365.09 107.81 370.91 108.11 C 374.69 111.18 378.86 113.74 383.14 116.06 C 383.48 116.22 384.15 116.54 384.48 116.70 C 383.52 119.58 382.99 122.62 383.26 125.67 C 379.51 122.73 375.89 119.60 372.72 116.03 C 371.64 117.86 370.55 119.68 369.43 121.48 C 368.32 120.22 367.46 118.78 366.84 117.23 C 361.69 120.92 354.32 121.04 350.47 126.48 C 347.32 130.63 342.99 133.76 340.23 138.19 C 337.73 143.07 336.78 148.55 334.96 153.70 C 332.23 150.34 329.45 147.02 326.73 143.65 C 326.91 143.42 327.27 142.96 327.46 142.73 C 330.41 140.05 331.49 136.23 332.09 132.42 C 333.01 132.53 333.94 132.63 334.87 132.73 C 335.38 131.85 335.89 130.96 336.40 130.07 C 341.25 124.19 346.06 118.26 351.16 112.60 C 352.06 112.05 353.04 111.64 354.02 111.24 Z" fill="#120142" opacity="1.00" stroke="#120142" stroke-width="0.25" data-index="16" style="visibility: visible;"></path>
<path d="M 316.07 111.59 C 317.41 112.07 318.76 112.54 320.08 113.11 C 321.83 113.80 323.64 114.72 324.28 116.64 C 326.69 122.00 329.51 127.15 332.09 132.42 C 331.49 136.23 330.41 140.05 327.46 142.73 C 324.21 141.36 320.99 139.87 318.03 137.96 C 311.98 134.02 305.65 130.52 299.64 126.53 C 301.61 124.20 303.68 121.88 306.36 120.33 C 309.97 117.90 314.70 116.16 316.07 111.59 Z" fill="#08014a" opacity="1.00" stroke="#08014a" stroke-width="0.25" data-index="17" style="visibility: visible;"></path>
<path d="M 339.15 124.24 C 343.77 120.99 346.51 115.76 351.16 112.60 C 346.06 118.26 341.25 124.19 336.40 130.07 C 337.32 128.13 338.19 126.16 339.15 124.24 Z" fill="#e4bcf8" opacity="1.00" stroke="#e4bcf8" stroke-width="0.25" data-index="18" style="visibility: visible;"></path>
<path d="M 162.13 115.02 C 166.99 120.64 171.50 126.62 176.98 131.67 C 177.06 131.24 177.23 130.40 177.32 129.97 C 180.59 134.66 181.87 140.34 184.70 145.27 C 182.44 148.46 180.01 151.52 177.44 154.46 C 177.07 153.90 176.33 152.79 175.97 152.23 C 175.36 149.50 174.93 146.73 174.11 144.05 C 171.78 134.86 163.68 128.88 160.15 120.25 C 160.86 118.52 161.52 116.78 162.13 115.02 Z" fill="#1d014f" opacity="1.00" stroke="#1d014f" stroke-width="0.25" data-index="19" style="visibility: visible;"></path>
<path d="M 369.43 121.48 C 370.55 119.68 371.64 117.86 372.72 116.03 C 375.89 119.60 379.51 122.73 383.26 125.67 C 383.87 132.66 387.31 140.11 383.94 146.88 C 382.10 151.20 380.44 155.60 378.63 159.93 C 377.45 162.69 376.07 165.37 375.08 168.21 C 373.85 171.72 374.31 175.49 373.95 179.12 C 373.39 181.00 372.70 182.83 371.95 184.64 C 370.65 184.27 369.16 183.95 368.49 182.61 C 364.53 176.36 361.49 169.58 357.92 163.10 C 357.06 161.71 356.18 160.10 354.52 159.58 C 350.68 158.16 346.70 157.19 342.79 156.01 C 346.88 156.11 351.13 156.34 354.91 158.10 C 357.57 159.65 359.58 162.06 361.85 164.11 C 365.62 157.23 367.03 149.36 368.35 141.72 C 369.28 136.51 365.27 132.43 362.10 128.88 C 359.75 126.03 354.48 124.71 351.88 127.87 C 348.86 131.18 345.85 134.53 343.03 138.02 C 339.18 142.66 339.61 149.57 334.96 153.70 C 336.78 148.55 337.73 143.07 340.23 138.19 C 342.99 133.76 347.32 130.63 350.47 126.48 C 354.32 121.04 361.69 120.92 366.84 117.23 C 367.46 118.78 368.32 120.22 369.43 121.48 Z" fill="#0b0136" opacity="1.00" stroke="#0b0136" stroke-width="0.25" data-index="20" style="visibility: visible;"></path>
<path d="M 125.90 116.93 L 126.52 117.52 C 126.98 117.94 127.88 118.77 128.33 119.19 C 128.51 126.55 126.27 133.67 125.89 140.98 C 126.47 145.50 128.76 149.59 130.37 153.81 C 129.49 154.97 128.61 156.13 127.73 157.29 C 125.67 152.86 123.79 148.33 122.25 143.68 C 121.24 140.75 122.22 137.67 122.70 134.73 C 124.05 128.85 124.50 122.80 125.90 116.93 Z" fill="#de617a" opacity="1.00" stroke="#de617a" stroke-width="0.25" data-index="21" style="visibility: visible;"></path>
<path d="M 384.48 116.70 C 386.52 118.12 386.35 120.81 386.81 122.98 C 387.47 128.34 388.42 133.67 389.33 138.99 C 390.10 142.56 388.48 145.94 387.19 149.17 C 385.59 153.00 384.12 156.89 382.57 160.75 C 381.97 160.43 381.38 160.11 380.79 159.80 C 380.06 159.84 379.35 159.89 378.63 159.93 C 380.44 155.60 382.10 151.20 383.94 146.88 C 387.31 140.11 383.87 132.66 383.26 125.67 C 382.99 122.62 383.52 119.58 384.48 116.70 Z" fill="#792e74" opacity="1.00" stroke="#792e74" stroke-width="0.25" data-index="22" style="visibility: visible;"></path>
<path d="M 202.68 117.96 C 206.34 120.55 210.10 123.00 213.76 125.59 C 211.38 127.66 208.87 129.60 206.08 131.11 C 200.01 134.43 194.29 138.41 187.86 141.05 C 191.27 135.20 195.22 129.69 199.44 124.41 C 201.01 122.54 202.04 120.30 202.68 117.96 Z" fill="#33046f" opacity="1.00" stroke="#33046f" stroke-width="0.25" data-index="23" style="visibility: visible;"></path>
<path d="M 128.33 119.19 C 130.28 120.83 132.59 122.50 135.27 122.22 C 141.85 121.63 148.37 123.12 154.95 123.24 C 157.36 123.01 158.98 124.81 160.14 126.66 C 157.01 126.48 153.49 125.82 150.75 127.76 C 148.07 129.77 146.14 132.62 144.56 135.53 C 142.44 139.36 143.53 143.89 144.17 147.96 C 145.38 153.56 146.39 159.45 149.76 164.24 C 152.07 162.07 154.15 159.54 156.91 157.91 C 159.25 157.06 161.81 157.33 164.25 157.07 C 160.62 158.49 155.87 159.09 154.01 163.01 C 149.97 170.30 146.94 178.14 142.28 185.08 C 141.69 184.87 140.52 184.47 139.93 184.26 C 139.40 182.88 138.90 181.49 138.32 180.13 C 138.01 179.63 137.39 178.62 137.08 178.12 C 139.04 171.74 135.68 165.76 133.19 160.10 C 132.24 158.00 131.29 155.91 130.37 153.81 C 128.76 149.59 126.47 145.50 125.89 140.98 C 126.27 133.67 128.51 126.55 128.33 119.19 Z" fill="#0b0136" opacity="1.00" stroke="#0b0136" stroke-width="0.25" data-index="24" style="visibility: visible;"></path>
<path d="M 213.76 125.59 C 214.32 125.46 215.44 125.19 216.01 125.05 L 215.62 125.82 C 214.33 134.93 217.63 143.93 217.78 153.04 C 207.45 151.11 198.13 145.81 187.84 143.73 C 187.41 143.63 186.55 143.43 186.12 143.33 C 186.69 142.56 187.27 141.80 187.86 141.05 C 194.29 138.41 200.01 134.43 206.08 131.11 C 208.87 129.60 211.38 127.66 213.76 125.59 Z" fill="#6640a4" opacity="1.00" stroke="#6640a4" stroke-width="0.25" data-index="25" style="visibility: visible;"></path>
<path d="M 150.75 127.76 C 153.49 125.82 157.01 126.48 160.14 126.66 C 162.53 130.57 165.68 133.89 168.63 137.37 C 172.35 141.66 172.52 147.77 175.97 152.23 C 176.33 152.79 177.07 153.90 177.44 154.46 C 177.15 154.81 176.57 155.52 176.28 155.87 C 173.41 155.89 170.55 156.12 167.72 156.52 C 166.56 156.70 165.40 156.88 164.25 157.07 C 161.81 157.33 159.25 157.06 156.91 157.91 C 154.15 159.54 152.07 162.07 149.76 164.24 C 146.39 159.45 145.38 153.56 144.17 147.96 C 143.53 143.89 142.44 139.36 144.56 135.53 C 146.14 132.62 148.07 129.77 150.75 127.76 Z" fill="#03001e" opacity="1.00" stroke="#03001e" stroke-width="0.25" data-index="26" style="visibility: visible;"></path>
<path d="M 351.88 127.87 C 354.48 124.71 359.75 126.03 362.10 128.88 C 365.27 132.43 369.28 136.51 368.35 141.72 C 367.03 149.36 365.62 157.23 361.85 164.11 C 359.58 162.06 357.57 159.65 354.91 158.10 C 351.13 156.34 346.88 156.11 342.79 156.01 C 340.79 155.94 338.81 156.03 336.82 156.11 C 336.20 155.30 335.59 154.49 334.96 153.70 C 339.61 149.57 339.18 142.66 343.03 138.02 C 345.85 134.53 348.86 131.18 351.88 127.87 Z" fill="#03001f" opacity="1.00" stroke="#03001f" stroke-width="0.25" data-index="27" style="visibility: visible;"></path>
<path d="M 298.51 126.54 C 298.79 126.54 299.35 126.54 299.64 126.53 C 305.65 130.52 311.98 134.02 318.03 137.96 C 320.99 139.87 324.21 141.36 327.46 142.73 C 327.27 142.96 326.91 143.42 326.73 143.65 C 326.56 144.00 326.22 144.69 326.05 145.03 C 325.66 144.67 324.89 143.94 324.50 143.57 C 314.63 146.35 305.36 151.06 295.29 153.08 C 295.89 144.18 297.63 135.41 298.51 126.54 Z" fill="#1c256a" opacity="1.00" stroke="#1c256a" stroke-width="0.25" data-index="28" style="visibility: visible;"></path>
<path d="M 245.74 145.85 C 249.25 144.22 252.56 141.88 256.46 141.31 L 255.77 142.26 C 243.84 151.24 232.34 160.78 220.28 169.58 C 219.44 166.49 219.03 163.31 218.63 160.14 C 227.60 155.25 236.74 150.69 245.74 145.85 Z" fill="#fa9ff9" opacity="1.00" stroke="#fa9ff9" stroke-width="0.25" data-index="29" style="visibility: visible;"></path>
<path d="M 257.79 141.13 C 265.55 144.49 272.87 148.73 280.34 152.68 C 284.44 154.91 288.93 156.48 292.69 159.29 C 294.88 160.74 294.32 163.75 294.05 165.96 C 293.76 167.16 293.80 168.97 292.08 168.78 C 289.57 167.45 287.48 165.48 285.25 163.76 C 276.09 156.58 266.47 149.93 258.01 141.89 L 257.79 141.13 Z" fill="#182267" opacity="1.00" stroke="#182267" stroke-width="0.25" data-index="30" style="visibility: visible;"></path>
<path d="M 186.12 143.33 C 186.55 143.43 187.41 143.63 187.84 143.73 C 187.81 147.27 188.10 150.80 188.43 154.33 C 187.56 152.28 186.41 150.37 185.22 148.50 C 180.06 153.31 175.92 159.07 171.81 164.77 C 169.65 167.58 169.55 171.22 169.18 174.59 C 169.02 174.96 168.68 175.71 168.51 176.09 C 168.39 172.86 168.04 169.59 168.59 166.39 C 170.61 162.53 173.86 159.48 176.28 155.87 C 176.57 155.52 177.15 154.81 177.44 154.46 C 180.01 151.52 182.44 148.46 184.70 145.27 C 185.06 144.79 185.77 143.82 186.12 143.33 Z" fill="#fcdba5" opacity="1.00" stroke="#fcdba5" stroke-width="0.25" data-index="31" style="visibility: visible;"></path>
<path d="M 220.28 169.58 C 232.34 160.78 243.84 151.24 255.77 142.26 C 256.15 148.84 257.00 155.40 256.91 162.00 C 256.78 176.62 257.08 191.25 256.74 205.86 L 256.28 206.19 C 249.04 201.30 241.96 196.20 234.87 191.11 C 231.32 188.45 226.71 186.49 224.90 182.16 C 223.33 178.43 222.09 174.58 220.60 170.83 C 220.52 170.52 220.36 169.90 220.28 169.58 Z" fill="#1f025f" opacity="1.00" stroke="#1f025f" stroke-width="0.25" data-index="32" style="visibility: visible;"></path>
<path d="M 326.05 145.03 C 326.22 144.69 326.56 144.00 326.73 143.65 C 329.45 147.02 332.23 150.34 334.96 153.70 C 335.59 154.49 336.20 155.30 336.82 156.11 C 339.23 159.87 343.14 162.82 344.55 167.13 C 344.93 179.34 343.26 191.52 343.46 203.73 C 343.48 211.61 342.18 219.45 342.69 227.34 C 342.35 227.28 341.68 227.18 341.35 227.12 C 340.87 225.69 340.37 224.26 339.88 222.84 C 337.15 222.97 334.43 223.28 331.73 223.72 C 331.67 224.88 331.62 226.05 331.58 227.22 C 330.06 227.21 328.54 227.21 327.03 227.20 C 322.25 220.35 320.98 212.02 320.20 203.90 C 322.13 184.28 323.70 164.61 326.05 145.03 Z" fill="#d5a262" opacity="1.00" stroke="#d5a262" stroke-width="0.25" data-index="33" style="visibility: visible;"></path>
<path d="M 171.81 164.77 C 175.92 159.07 180.06 153.31 185.22 148.50 C 186.41 150.37 187.56 152.28 188.43 154.33 C 189.84 168.56 191.18 182.80 192.56 197.04 C 192.83 199.98 192.81 202.95 192.52 205.90 C 191.82 212.70 191.40 220.19 186.71 225.63 C 185.69 227.18 183.67 226.86 182.09 227.08 C 178.42 226.13 174.79 225.09 171.08 224.34 C 170.88 226.88 170.73 229.43 170.39 231.96 C 171.36 212.83 168.80 193.73 169.18 174.59 C 169.55 171.22 169.65 167.58 171.81 164.77 Z" fill="#fdd17d" opacity="1.00" stroke="#fdd17d" stroke-width="0.25" data-index="34" style="visibility: visible;"></path>
<path d="M 130.37 153.81 C 131.29 155.91 132.24 158.00 133.19 160.10 C 132.40 161.72 131.60 163.33 130.78 164.94 C 129.56 162.47 128.58 159.90 127.73 157.29 C 128.61 156.13 129.49 154.97 130.37 153.81 Z" fill="#9e4076" opacity="1.00" stroke="#9e4076" stroke-width="0.25" data-index="35" style="visibility: visible;"></path>
<path d="M 167.72 156.52 C 170.55 156.12 173.41 155.89 176.28 155.87 C 173.86 159.48 170.61 162.53 168.59 166.39 C 168.04 169.59 168.39 172.86 168.51 176.09 C 168.68 175.71 169.02 174.96 169.18 174.59 C 168.80 193.73 171.36 212.83 170.39 231.96 C 170.15 235.61 169.46 239.26 169.70 242.93 C 170.22 244.29 171.83 244.58 173.00 245.18 C 171.10 245.22 168.91 245.13 167.50 246.65 C 163.80 250.11 160.76 254.23 156.83 257.45 C 155.55 261.08 156.82 264.90 157.20 268.58 C 158.17 274.65 158.07 280.84 159.10 286.90 C 159.25 288.49 160.61 289.45 161.60 290.54 C 161.61 291.42 161.60 292.30 161.60 293.19 L 160.86 292.78 C 159.34 292.39 157.71 292.40 156.35 293.27 C 149.44 296.90 143.01 301.36 136.09 304.97 C 136.36 297.21 137.70 289.39 136.33 281.67 C 136.67 274.40 137.54 267.09 139.03 259.96 C 142.77 249.75 146.70 239.59 150.51 229.41 C 151.14 227.54 152.10 225.36 150.59 223.63 C 151.97 221.67 153.33 219.71 154.75 217.78 C 151.57 214.73 146.81 212.79 145.64 208.18 C 150.89 196.66 155.05 184.70 160.21 173.15 C 161.34 170.75 161.82 168.13 162.15 165.52 C 163.01 161.99 165.05 158.94 167.72 156.52 Z" fill="#75189d" opacity="1.00" stroke="#75189d" stroke-width="0.25" data-index="36" style="visibility: visible;"></path>
<path d="M 336.82 156.11 C 338.81 156.03 340.79 155.94 342.79 156.01 C 346.70 157.19 350.68 158.16 354.52 159.58 C 356.18 160.10 357.06 161.71 357.92 163.10 C 361.49 169.58 364.53 176.36 368.49 182.61 C 369.16 183.95 370.65 184.27 371.95 184.64 C 371.28 186.10 370.53 187.53 369.80 188.97 C 366.52 188.11 362.50 187.64 360.69 184.34 C 357.83 179.57 355.40 174.55 352.49 169.80 C 351.46 164.44 348.32 157.59 341.87 157.92 C 343.26 161.96 347.04 165.20 346.67 169.75 C 346.47 178.85 345.13 187.91 345.28 197.02 C 345.41 201.82 344.98 206.61 343.99 211.30 C 343.86 208.77 343.60 206.26 343.46 203.73 C 343.26 191.52 344.93 179.34 344.55 167.13 C 343.14 162.82 339.23 159.87 336.82 156.11 Z" fill="#28066c" opacity="1.00" stroke="#28066c" stroke-width="0.25" data-index="37" style="visibility: visible;"></path>
<path d="M 164.25 157.07 C 165.40 156.88 166.56 156.70 167.72 156.52 C 165.05 158.94 163.01 161.99 162.15 165.52 C 158.75 171.62 155.30 177.70 151.80 183.74 C 150.03 187.20 146.05 188.77 142.33 188.74 C 141.21 187.44 140.56 185.83 139.93 184.26 C 140.52 184.47 141.69 184.87 142.28 185.08 C 146.94 178.14 149.97 170.30 154.01 163.01 C 155.87 159.09 160.62 158.49 164.25 157.07 Z" fill="#530b85" opacity="1.00" stroke="#530b85" stroke-width="0.25" data-index="38" style="visibility: visible;"></path>
<path d="M 341.87 157.92 C 348.32 157.59 351.46 164.44 352.49 169.80 C 352.62 172.02 352.75 174.28 353.67 176.34 C 358.00 186.97 362.81 197.41 367.01 208.09 C 367.03 208.76 367.07 210.11 367.09 210.79 C 364.01 212.98 361.03 215.30 358.13 217.72 C 359.33 219.68 360.51 221.66 361.65 223.65 C 361.84 230.14 365.22 235.84 367.14 241.89 C 369.29 248.48 372.69 254.63 374.37 261.37 C 375.35 267.47 376.24 273.61 376.70 279.78 C 375.96 288.11 376.28 296.50 377.22 304.80 C 372.11 302.54 367.37 299.55 362.88 296.24 C 360.31 293.71 356.83 292.20 354.43 289.56 C 353.20 283.09 355.13 276.47 355.13 269.94 C 354.96 265.67 358.32 261.39 356.38 257.29 C 352.63 253.45 348.15 250.21 345.08 245.76 C 344.10 241.48 344.72 237.01 344.15 232.66 C 343.30 225.57 343.35 218.41 343.99 211.30 C 344.98 206.61 345.41 201.82 345.28 197.02 C 345.13 187.91 346.47 178.85 346.67 169.75 C 347.04 165.20 343.26 161.96 341.87 157.92 Z" fill="#350d7a" opacity="1.00" stroke="#350d7a" stroke-width="0.25" data-index="39" style="opacity: 1; visibility: visible;"></path>
<path d="M 380.79 159.80 C 381.38 160.11 381.97 160.43 382.57 160.75 C 379.55 166.78 378.75 174.12 373.95 179.12 C 374.31 175.49 373.85 171.72 375.08 168.21 C 376.07 165.37 377.45 162.69 378.63 159.93 C 379.35 159.89 380.06 159.84 380.79 159.80 Z" fill="#481965" opacity="1.00" stroke="#481965" stroke-width="0.25" data-index="40" style="visibility: visible;"></path>
<path d="M 133.19 160.10 C 135.68 165.76 139.04 171.74 137.08 178.12 C 133.37 174.71 132.83 169.32 130.78 164.94 C 131.60 163.33 132.40 161.72 133.19 160.10 Z" fill="#64216e" opacity="1.00" stroke="#64216e" stroke-width="0.25" data-index="41" style="visibility: visible;"></path>
<path d="M 151.80 183.74 C 155.30 177.70 158.75 171.62 162.15 165.52 C 161.82 168.13 161.34 170.75 160.21 173.15 C 155.05 184.70 150.89 196.66 145.64 208.18 C 142.20 219.10 134.02 227.40 127.88 236.79 C 126.72 238.71 126.79 241.05 126.59 243.21 C 126.05 242.29 125.50 241.39 124.93 240.49 C 128.02 227.17 134.45 214.95 139.13 202.16 C 134.77 207.46 130.68 212.99 126.09 218.11 C 126.69 212.45 129.03 207.22 130.83 201.89 C 133.30 194.63 136.19 187.50 138.32 180.13 C 138.90 181.49 139.40 182.88 139.93 184.26 C 140.56 185.83 141.21 187.44 142.33 188.74 C 146.05 188.77 150.03 187.20 151.80 183.74 Z" fill="#c538c2" opacity="1.00" stroke="#c538c2" stroke-width="0.25" data-index="42" style="visibility: visible;"></path>
<path d="M 353.67 176.34 C 352.75 174.28 352.62 172.02 352.49 169.80 C 355.40 174.55 357.83 179.57 360.69 184.34 C 362.50 187.64 366.52 188.11 369.80 188.97 C 370.53 187.53 371.28 186.10 371.95 184.64 C 372.70 182.83 373.39 181.00 373.95 179.12 C 377.31 192.41 383.44 204.88 386.78 218.20 C 381.77 213.20 377.47 207.59 373.27 201.92 C 375.60 208.10 378.45 214.07 380.75 220.26 C 383.22 226.96 386.50 233.42 387.87 240.47 C 387.55 240.22 386.91 239.71 386.59 239.45 C 381.74 233.75 378.13 227.15 374.15 220.85 C 371.29 216.88 368.69 212.70 367.01 208.09 C 362.81 197.41 358.00 186.97 353.67 176.34 Z" fill="#7f2faa" opacity="1.00" stroke="#7f2faa" stroke-width="0.25" data-index="43" style="visibility: visible;"></path>
<path d="M 221.10 178.77 C 220.61 176.15 220.62 173.48 220.60 170.83 C 222.09 174.58 223.33 178.43 224.90 182.16 C 226.71 186.49 231.32 188.45 234.87 191.11 C 241.96 196.20 249.04 201.30 256.28 206.19 C 256.72 211.80 256.70 217.43 256.84 223.05 C 249.78 221.88 242.77 220.44 235.69 219.35 C 233.33 218.87 230.79 218.60 228.74 217.23 C 227.68 215.33 227.33 213.15 226.91 211.05 C 225.11 200.27 223.14 189.51 221.10 178.77 Z" fill="#5b43a1" opacity="1.00" stroke="#5b43a1" stroke-width="0.25" data-index="44" style="visibility: visible;"></path>
<path d="M 288.13 182.14 C 289.55 178.66 290.72 175.06 292.70 171.84 C 291.76 182.28 289.25 192.50 287.84 202.88 C 286.91 207.83 286.56 212.96 284.62 217.66 C 275.45 219.87 266.10 221.25 256.84 223.05 C 256.70 217.43 256.72 211.80 256.28 206.19 L 256.74 205.86 C 265.80 200.83 273.62 193.96 282.24 188.26 C 284.55 186.62 287.08 184.90 288.13 182.14 Z" fill="#1a266b" opacity="1.00" stroke="#1a266b" stroke-width="0.25" data-index="45" style="visibility: visible;"></path>
<path d="M 126.09 218.11 C 130.68 212.99 134.77 207.46 139.13 202.16 C 134.45 214.95 128.02 227.17 124.93 240.49 C 122.80 248.43 120.26 256.26 117.94 264.15 C 117.66 257.42 117.65 250.68 117.77 243.95 C 118.67 238.39 121.02 233.19 122.44 227.75 C 123.51 224.50 123.91 220.87 126.09 218.11 Z" fill="#140249" opacity="1.00" stroke="#140249" stroke-width="0.25" data-index="46" style="visibility: visible;"></path>
<path d="M 373.27 201.92 C 377.47 207.59 381.77 213.20 386.78 218.20 C 388.74 221.30 389.07 225.12 390.35 228.52 C 392.05 234.99 395.59 241.13 395.19 248.01 C 395.08 252.82 395.42 257.65 394.80 262.44 C 391.85 255.33 389.82 247.90 387.87 240.47 C 386.50 233.42 383.22 226.96 380.75 220.26 C 378.45 214.07 375.60 208.10 373.27 201.92 Z" fill="#0c0340" opacity="1.00" stroke="#0c0340" stroke-width="0.25" data-index="47" style="visibility: visible;"></path>
<path d="M 193.22 203.69 C 204.08 210.34 215.08 216.78 225.76 223.71 C 226.06 224.22 226.64 225.22 226.93 225.72 C 226.51 225.68 225.67 225.60 225.25 225.56 C 224.73 227.26 224.20 228.97 223.58 230.64 C 220.89 235.04 218.00 239.32 214.86 243.42 C 205.40 239.69 197.50 232.96 188.35 228.59 C 186.39 227.69 184.19 227.91 182.10 227.85 L 182.09 227.08 C 183.67 226.86 185.69 227.18 186.71 225.63 C 191.40 220.19 191.82 212.70 192.52 205.90 C 192.75 205.16 192.98 204.42 193.22 203.69 Z" fill="#4e5ca6" opacity="1.00" stroke="#4e5ca6" stroke-width="0.25" data-index="48" style="visibility: visible;"></path>
<path d="M 296.91 217.87 C 304.71 213.26 312.15 208.07 320.20 203.90 C 320.98 212.02 322.25 220.35 327.03 227.20 C 317.99 232.64 308.94 238.07 299.76 243.26 C 295.09 240.31 292.90 235.02 290.16 230.46 C 289.18 228.54 288.28 226.58 287.30 224.67 C 289.94 221.69 293.56 219.91 296.91 217.87 Z" fill="#2f4e8e" opacity="1.00" stroke="#2f4e8e" stroke-width="0.25" data-index="49" style="visibility: visible;"></path>
<path d="M 342.69 227.34 C 342.18 219.45 343.48 211.61 343.46 203.73 C 343.60 206.26 343.86 208.77 343.99 211.30 C 343.35 218.41 343.30 225.57 344.15 232.66 C 344.72 237.01 344.10 241.48 345.08 245.76 C 348.15 250.21 352.63 253.45 356.38 257.29 C 354.13 262.43 350.16 266.45 346.90 270.92 C 342.87 276.28 338.48 281.38 334.75 286.97 C 329.06 295.08 324.63 304.01 318.85 312.07 C 318.26 312.76 317.66 313.44 317.06 314.12 C 314.94 316.62 311.16 319.51 312.76 323.21 C 315.30 330.28 318.47 337.43 318.52 345.06 C 317.28 351.03 313.88 356.31 312.18 362.16 C 309.70 371.05 303.93 378.71 302.84 388.04 C 300.62 392.76 296.23 396.20 291.82 398.85 C 285.12 402.84 278.69 407.32 271.86 411.09 C 271.41 411.03 270.53 410.90 270.09 410.83 C 273.90 404.80 279.89 400.54 283.37 394.27 C 287.88 390.03 290.77 384.56 293.23 378.96 C 293.37 377.81 293.44 376.65 293.49 375.50 C 297.75 371.67 301.90 367.48 304.01 362.03 C 306.58 355.56 310.87 349.23 309.82 341.96 C 309.11 333.27 309.87 324.07 305.96 316.03 C 303.55 310.55 301.41 304.97 299.09 299.46 C 295.90 291.09 292.46 282.83 289.02 274.57 C 288.62 273.48 288.25 272.38 287.89 271.29 C 288.84 270.58 289.79 269.87 290.76 269.17 C 292.32 268.03 293.91 266.91 295.49 265.79 C 295.44 266.88 295.40 267.96 295.36 269.05 C 294.68 269.26 293.31 269.66 292.63 269.87 C 293.86 272.20 296.65 272.31 298.92 272.85 C 302.25 273.46 305.60 274.25 309.01 274.20 C 314.09 273.25 319.03 270.32 321.57 265.69 C 324.23 260.90 326.71 255.99 328.52 250.81 C 327.97 250.88 326.87 251.01 326.32 251.08 C 324.17 251.29 322.01 251.43 319.87 251.70 C 314.82 251.98 310.37 254.43 306.29 257.21 C 305.90 256.95 305.11 256.43 304.72 256.17 C 308.51 253.18 311.66 248.89 316.55 247.67 C 321.08 246.86 325.71 246.78 330.25 245.95 C 330.30 242.97 330.37 239.99 330.49 237.02 C 330.67 239.50 330.80 241.99 330.69 244.48 L 330.61 245.73 C 335.09 245.71 339.56 245.38 344.00 244.75 C 343.92 238.92 343.42 233.12 342.69 227.34 Z" fill="#02011d" opacity="1.00" stroke="#02011d" stroke-width="0.25" data-index="50" style="visibility: visible;"></path>
<path d="M 127.88 236.79 C 134.02 227.40 142.20 219.10 145.64 208.18 C 146.81 212.79 151.57 214.73 154.75 217.78 C 153.33 219.71 151.97 221.67 150.59 223.63 C 143.07 234.03 134.62 243.74 127.17 254.18 C 127.18 250.51 126.94 246.85 126.59 243.21 C 126.79 241.05 126.72 238.71 127.88 236.79 Z" fill="#ae2cb6" opacity="1.00" stroke="#ae2cb6" stroke-width="0.25" data-index="51" style="visibility: visible;"></path>
<path d="M 367.01 208.09 C 368.69 212.70 371.29 216.88 374.15 220.85 C 378.13 227.15 381.74 233.75 386.59 239.45 C 385.92 244.59 385.54 249.80 385.94 254.98 C 383.56 249.70 379.11 245.83 375.80 241.18 C 371.37 235.11 366.68 229.23 361.65 223.65 C 360.51 221.66 359.33 219.68 358.13 217.72 C 361.03 215.30 364.01 212.98 367.09 210.79 C 367.07 210.11 367.03 208.76 367.01 208.09 Z" fill="#5a1f95" opacity="1.00" stroke="#5a1f95" stroke-width="0.25" data-index="52" style="visibility: visible;"></path>
<path d="M 256.84 223.05 C 266.10 221.25 275.45 219.87 284.62 217.66 C 281.76 220.49 278.96 223.44 276.92 226.94 C 272.78 233.36 270.75 240.95 265.93 246.95 C 262.18 251.58 260.60 257.51 256.77 262.07 C 255.96 261.22 255.15 260.37 254.41 259.46 C 256.07 257.72 257.08 255.51 256.90 253.06 C 257.01 243.06 257.04 233.05 256.84 223.05 Z" fill="#070953" opacity="1.00" stroke="#070953" stroke-width="0.25" data-index="53" style="visibility: visible;"></path>
<path d="M 331.73 223.72 C 334.43 223.28 337.15 222.97 339.88 222.84 C 340.37 224.26 340.87 225.69 341.35 227.12 C 341.68 227.18 342.35 227.28 342.69 227.34 C 343.42 233.12 343.92 238.92 344.00 244.75 C 339.56 245.38 335.09 245.71 330.61 245.73 L 330.69 244.48 C 331.37 238.75 331.48 232.98 331.58 227.22 C 331.62 226.05 331.67 224.88 331.73 223.72 Z" fill="#f2a15a" opacity="1.00" stroke="#f2a15a" stroke-width="0.25" data-index="54" style="visibility: visible;"></path>
<path d="M 150.59 223.63 C 152.10 225.36 151.14 227.54 150.51 229.41 C 146.70 239.59 142.77 249.75 139.03 259.96 C 137.54 267.09 136.67 274.40 136.33 281.67 C 134.38 289.01 131.04 295.90 129.08 303.24 C 128.40 304.74 129.14 306.23 129.61 307.67 C 129.41 308.04 129.01 308.79 128.80 309.16 C 126.43 305.64 128.03 300.88 127.14 296.87 C 125.38 297.97 123.66 299.14 121.93 300.31 C 121.16 297.23 120.33 294.17 119.81 291.04 C 119.68 285.67 120.62 280.35 121.27 275.05 C 122.21 267.83 125.48 261.21 127.17 254.18 C 134.62 243.74 143.07 234.03 150.59 223.63 Z" fill="#15014c" opacity="1.00" stroke="#15014c" stroke-width="0.25" data-index="55" style="visibility: visible;"></path>
<path d="M 171.08 224.34 C 174.79 225.09 178.42 226.13 182.09 227.08 L 182.10 227.85 C 182.22 233.89 182.63 239.92 182.89 245.96 C 179.60 245.65 176.30 245.43 173.00 245.18 C 171.83 244.58 170.22 244.29 169.70 242.93 C 169.46 239.26 170.15 235.61 170.39 231.96 C 170.73 229.43 170.88 226.88 171.08 224.34 Z" fill="#fa9556" opacity="1.00" stroke="#fa9556" stroke-width="0.25" data-index="56" style="visibility: visible;"></path>
<path d="M 367.14 241.89 C 365.22 235.84 361.84 230.14 361.65 223.65 C 366.68 229.23 371.37 235.11 375.80 241.18 C 379.11 245.83 383.56 249.70 385.94 254.98 C 387.91 262.22 391.58 269.04 392.08 276.63 C 392.45 281.47 393.43 286.27 393.25 291.13 C 392.69 294.13 391.95 297.09 391.38 300.09 C 389.42 299.20 387.61 298.05 385.81 296.90 C 385.65 300.10 385.66 303.30 385.44 306.50 C 383.85 302.28 382.53 297.97 381.22 293.67 C 379.81 289.00 377.33 284.67 376.70 279.78 C 376.24 273.61 375.35 267.47 374.37 261.37 C 372.69 254.63 369.29 248.48 367.14 241.89 Z" fill="#0a0143" opacity="1.00" stroke="#0a0143" stroke-width="0.25" data-index="57" style="visibility: visible;"></path>
<path d="M 225.25 225.56 C 225.67 225.60 226.51 225.68 226.93 225.72 C 230.12 233.13 232.55 240.87 236.35 248.01 C 236.28 248.43 236.15 249.29 236.08 249.71 L 235.30 249.54 C 231.71 243.04 227.89 236.68 223.58 230.64 C 224.20 228.97 224.73 227.26 225.25 225.56 Z" fill="#5dade0" opacity="1.00" stroke="#5dade0" stroke-width="0.25" data-index="58" style="visibility: visible;"></path>
<path d="M 287.30 224.67 C 288.28 226.58 289.18 228.54 290.16 230.46 C 285.46 236.36 281.92 243.05 278.02 249.47 C 277.68 249.51 277.00 249.58 276.67 249.62 C 280.46 241.41 283.53 232.89 287.30 224.67 Z" fill="#b8ccfc" opacity="1.00" stroke="#b8ccfc" stroke-width="0.25" data-index="59" style="visibility: visible;"></path>
<path d="M 299.76 243.26 C 308.94 238.07 317.99 232.64 327.03 227.20 C 328.54 227.21 330.06 227.21 331.58 227.22 C 331.48 232.98 331.37 238.75 330.69 244.48 C 330.80 241.99 330.67 239.50 330.49 237.02 C 330.37 239.99 330.30 242.97 330.25 245.95 C 325.71 246.78 321.08 246.86 316.55 247.67 C 311.66 248.89 308.51 253.18 304.72 256.17 C 301.74 258.37 298.81 260.63 295.83 262.84 C 296.54 256.96 297.92 251.16 297.90 245.21 C 297.15 245.13 295.67 244.99 294.92 244.92 C 296.55 244.40 298.17 243.87 299.76 243.26 Z" fill="#242b6c" opacity="1.00" stroke="#242b6c" stroke-width="0.25" data-index="60" style="visibility: visible;"></path>
<path d="M 182.10 227.85 C 184.19 227.91 186.39 227.69 188.35 228.59 C 197.50 232.96 205.40 239.69 214.86 243.42 C 218.00 239.32 220.89 235.04 223.58 230.64 C 227.89 236.68 231.71 243.04 235.30 249.54 C 228.49 248.33 222.11 245.20 215.12 245.00 C 215.13 250.87 217.40 256.63 216.28 262.51 C 212.92 259.22 209.03 256.55 205.58 253.36 C 202.89 251.04 200.31 248.15 196.65 247.49 C 192.11 246.63 187.47 246.49 182.89 245.96 C 182.63 239.92 182.22 233.89 182.10 227.85 Z" fill="#252d6e" opacity="1.00" stroke="#252d6e" stroke-width="0.25" data-index="61" style="visibility: visible;"></path>
<path d="M 290.16 230.46 C 292.90 235.02 295.09 240.31 299.76 243.26 C 298.17 243.87 296.55 244.40 294.92 244.92 C 289.28 246.41 283.92 249.09 278.02 249.47 C 281.92 243.05 285.46 236.36 290.16 230.46 Z" fill="#323479" opacity="1.00" stroke="#323479" stroke-width="0.25" data-index="62" style="visibility: visible;"></path>
<path d="M 386.59 239.45 C 386.91 239.71 387.55 240.22 387.87 240.47 C 389.82 247.90 391.85 255.33 394.80 262.44 C 396.08 266.50 397.06 270.86 396.23 275.12 C 395.21 280.45 393.98 285.74 393.25 291.13 C 393.43 286.27 392.45 281.47 392.08 276.63 C 391.58 269.04 387.91 262.22 385.94 254.98 C 385.54 249.80 385.92 244.59 386.59 239.45 Z" fill="#ef48e0" opacity="1.00" stroke="#ef48e0" stroke-width="0.25" data-index="63" style="visibility: visible;"></path>
<path d="M 117.94 264.15 C 120.26 256.26 122.80 248.43 124.93 240.49 C 125.50 241.39 126.05 242.29 126.59 243.21 C 126.94 246.85 127.18 250.51 127.17 254.18 C 125.48 261.21 122.21 267.83 121.27 275.05 C 120.62 280.35 119.68 285.67 119.81 291.04 C 118.71 285.44 117.60 279.85 116.63 274.23 C 115.97 270.81 116.86 267.38 117.94 264.15 Z" fill="#f346df" opacity="1.00" stroke="#f346df" stroke-width="0.25" data-index="64" style="visibility: visible;"></path>
<path d="M 167.50 246.65 C 168.91 245.13 171.10 245.22 173.00 245.18 C 176.30 245.43 179.60 245.65 182.89 245.96 C 187.47 246.49 192.11 246.63 196.65 247.49 C 200.31 248.15 202.89 251.04 205.58 253.36 C 209.03 256.55 212.92 259.22 216.28 262.51 C 219.33 265.92 222.64 269.12 225.43 272.77 C 224.87 274.11 224.36 275.47 223.86 276.83 C 218.16 291.40 212.10 305.83 206.46 320.43 C 204.73 327.81 204.88 335.52 204.31 343.06 C 203.56 349.10 206.91 354.43 209.20 359.75 C 211.58 365.13 214.58 370.41 219.20 374.20 C 223.36 376.37 228.23 375.21 232.72 375.30 C 240.03 375.70 246.87 372.98 253.56 370.42 C 253.53 367.90 254.09 365.20 253.08 362.80 C 251.27 359.99 248.13 358.46 245.39 356.71 C 241.00 354.11 236.55 351.60 232.26 348.81 C 228.95 345.71 226.03 341.82 225.81 337.11 C 226.05 336.75 226.51 336.05 226.74 335.70 C 227.60 338.30 228.26 341.24 230.77 342.80 C 231.51 341.65 232.24 340.49 233.03 339.37 L 233.54 338.78 C 237.56 340.35 241.85 341.16 246.17 340.86 C 243.58 338.95 240.76 337.38 237.86 335.99 C 238.56 333.97 239.27 331.95 239.77 329.87 C 250.09 334.41 262.15 335.24 272.60 330.63 C 272.69 330.00 272.85 328.75 272.94 328.13 C 273.28 328.22 273.96 328.41 274.31 328.51 C 274.77 331.00 275.43 333.45 276.14 335.89 C 274.33 337.18 272.54 338.52 270.78 339.88 C 274.09 339.88 277.41 339.95 280.71 339.62 C 281.74 340.77 282.76 341.94 283.80 343.10 C 285.29 340.80 286.63 338.42 287.82 335.95 C 288.12 336.40 288.71 337.31 289.01 337.76 C 287.70 340.51 286.40 343.26 285.03 345.97 C 280.72 350.02 275.49 352.86 270.43 355.84 C 267.65 357.50 264.67 358.96 262.39 361.31 C 260.14 363.62 260.75 367.11 260.51 370.04 C 265.19 372.07 269.97 374.01 275.04 374.80 C 280.59 375.82 286.30 375.07 291.86 376.04 L 292.29 376.92 C 290.20 378.03 288.11 379.14 285.94 380.11 C 279.98 381.24 274.03 379.61 268.08 379.27 C 259.99 378.67 251.85 378.68 243.79 379.61 C 238.84 380.05 233.87 380.71 228.90 380.18 C 226.20 379.10 223.53 377.93 220.79 376.98 C 223.10 382.70 225.10 388.87 229.76 393.19 C 233.95 399.82 240.01 404.88 244.82 411.02 C 244.36 411.05 243.44 411.11 242.98 411.15 C 235.29 406.55 227.75 401.66 220.09 396.99 C 216.14 394.76 213.49 390.89 211.16 387.12 C 208.95 377.12 202.84 368.62 200.34 358.72 C 198.73 352.46 193.76 346.50 195.83 339.76 C 197.22 334.32 198.84 328.93 200.79 323.67 C 201.11 322.19 202.31 320.38 200.98 319.08 C 200.13 317.96 199.08 317.00 198.08 316.02 C 197.41 315.36 196.74 314.69 196.07 314.03 C 190.19 305.56 185.03 296.62 179.64 287.85 C 175.52 282.18 171.10 276.73 166.82 271.17 C 163.41 266.66 159.42 262.54 156.83 257.45 C 160.76 254.23 163.80 250.11 167.50 246.65 Z" fill="#02011d" opacity="1.00" stroke="#02011d" stroke-width="0.25" data-index="65" style="visibility: visible;"></path>
<path d="M 215.12 245.00 C 222.11 245.20 228.49 248.33 235.30 249.54 L 236.08 249.71 C 236.15 249.29 236.28 248.43 236.35 248.01 C 236.82 248.96 237.30 249.91 237.79 250.86 C 235.08 251.86 231.93 252.63 230.36 255.31 C 227.99 259.16 224.98 262.68 223.18 266.86 C 223.96 268.79 226.08 269.47 227.75 270.43 C 226.91 271.14 226.13 271.92 225.43 272.77 C 222.64 269.12 219.33 265.92 216.28 262.51 C 217.40 256.63 215.13 250.87 215.12 245.00 Z" fill="#111356" opacity="1.00" stroke="#111356" stroke-width="0.25" data-index="66" style="visibility: visible;"></path>
<path d="M 278.02 249.47 C 283.92 249.09 289.28 246.41 294.92 244.92 C 295.67 244.99 297.15 245.13 297.90 245.21 C 297.92 251.16 296.54 256.96 295.83 262.84 C 298.81 260.63 301.74 258.37 304.72 256.17 C 305.11 256.43 305.90 256.95 306.29 257.21 C 303.59 259.26 301.18 261.66 298.93 264.18 C 299.75 264.40 301.39 264.83 302.22 265.05 C 300.31 266.95 297.99 268.39 295.36 269.05 C 295.40 267.96 295.44 266.88 295.49 265.79 C 293.91 266.91 292.32 268.03 290.76 269.17 C 288.98 268.73 287.20 268.28 285.43 267.84 C 285.61 265.88 286.55 263.64 285.30 261.85 C 283.65 259.56 281.28 257.95 279.09 256.23 C 278.99 254.86 278.89 253.49 278.82 252.11 C 277.86 251.78 276.90 251.46 275.95 251.16 C 276.19 250.65 276.42 250.13 276.67 249.62 C 277.00 249.58 277.68 249.51 278.02 249.47 Z" fill="#111256" opacity="1.00" stroke="#111256" stroke-width="0.25" data-index="67" style="visibility: visible;"></path>
<path d="M 185.00 250.65 C 185.65 250.87 186.95 251.30 187.60 251.52 C 191.02 258.03 192.83 266.45 199.94 270.04 C 206.63 273.80 214.10 269.58 221.16 269.74 C 220.32 271.73 218.02 271.79 216.23 272.27 C 212.49 273.05 208.75 273.96 204.94 274.25 C 198.66 273.57 193.04 269.19 190.73 263.31 C 188.69 259.15 186.30 255.12 185.00 250.65 Z" fill="#74c8f8" opacity="1.00" stroke="#74c8f8" stroke-width="0.25" data-index="68" style="visibility: visible;"></path>
<path d="M 187.60 251.52 C 190.13 251.39 192.67 251.25 195.20 251.08 L 195.18 251.80 C 194.81 256.26 197.78 260.19 200.84 263.12 C 204.70 266.79 210.23 264.79 214.85 264.24 C 216.14 266.87 218.41 268.77 221.16 269.74 C 214.10 269.58 206.63 273.80 199.94 270.04 C 192.83 266.45 191.02 258.03 187.60 251.52 Z" fill="#030467" opacity="1.00" stroke="#030467" stroke-width="0.25" data-index="69" style="visibility: visible;"></path>
<path d="M 319.87 251.70 C 322.01 251.43 324.17 251.29 326.32 251.08 C 322.69 257.85 320.60 266.56 313.20 270.30 C 306.68 273.66 299.45 269.82 292.63 269.87 C 293.31 269.66 294.68 269.26 295.36 269.05 C 297.99 268.39 300.31 266.95 302.22 265.05 C 305.64 265.30 309.51 265.66 312.38 263.38 C 316.03 260.38 317.90 255.87 319.87 251.70 Z" fill="#04046c" opacity="1.00" stroke="#04046c" stroke-width="0.25" data-index="70" style="visibility: visible;"></path>
<path d="M 326.32 251.08 C 326.87 251.01 327.97 250.88 328.52 250.81 C 326.71 255.99 324.23 260.90 321.57 265.69 C 319.03 270.32 314.09 273.25 309.01 274.20 C 305.60 274.25 302.25 273.46 298.92 272.85 C 296.65 272.31 293.86 272.20 292.63 269.87 C 299.45 269.82 306.68 273.66 313.20 270.30 C 320.60 266.56 322.69 257.85 326.32 251.08 Z" fill="#6ad0f4" opacity="1.00" stroke="#6ad0f4" stroke-width="0.25" data-index="71" style="visibility: visible;"></path>
<path d="M 200.84 263.12 C 197.78 260.19 194.81 256.26 195.18 251.80 C 201.27 252.59 206.16 256.51 210.89 260.10 C 212.43 261.24 213.80 262.62 214.85 264.24 C 210.23 264.79 204.70 266.79 200.84 263.12 Z" fill="#81fbf8" opacity="1.00" stroke="#81fbf8" stroke-width="0.25" data-index="72" style="visibility: visible;"></path>
<path d="M 306.29 257.21 C 310.37 254.43 314.82 251.98 319.87 251.70 C 317.90 255.87 316.03 260.38 312.38 263.38 C 309.51 265.66 305.64 265.30 302.22 265.05 C 301.39 264.83 299.75 264.40 298.93 264.18 C 301.18 261.66 303.59 259.26 306.29 257.21 Z" fill="#7ff9f8" opacity="1.00" stroke="#7ff9f8" stroke-width="0.25" data-index="73" style="visibility: visible;"></path>
<path d="M 157.20 268.58 C 156.82 264.90 155.55 261.08 156.83 257.45 C 159.42 262.54 163.41 266.66 166.82 271.17 C 171.10 276.73 175.52 282.18 179.64 287.85 C 173.51 287.61 167.51 289.14 161.60 290.54 C 160.61 289.45 159.25 288.49 159.10 286.90 C 158.07 280.84 158.17 274.65 157.20 268.58 Z" fill="#560f8c" opacity="1.00" stroke="#560f8c" stroke-width="0.25" data-index="74" style="visibility: visible;"></path>
<path d="M 356.38 257.29 C 358.32 261.39 354.96 265.67 355.13 269.94 C 355.13 276.47 353.20 283.09 354.43 289.56 C 356.83 292.20 360.31 293.71 362.88 296.24 C 359.90 294.83 356.86 293.55 353.88 292.16 C 351.97 295.42 350.63 298.96 349.50 302.55 C 347.04 310.11 343.50 317.36 342.19 325.26 C 347.22 324.39 350.90 320.70 354.99 317.98 C 359.45 314.94 363.82 311.62 369.00 309.88 C 366.58 317.52 361.66 323.97 358.19 331.13 C 355.99 336.16 350.56 338.18 347.05 342.04 C 341.76 347.77 336.79 353.78 331.70 359.68 C 329.83 361.92 327.44 363.64 324.90 365.05 C 328.65 352.10 336.39 340.71 340.99 328.07 C 332.44 324.36 322.75 324.82 314.19 321.09 C 315.07 318.73 315.94 316.37 317.06 314.12 C 317.66 313.44 318.26 312.76 318.85 312.07 C 318.94 312.77 319.12 314.17 319.21 314.87 C 325.45 311.37 330.85 306.63 336.93 302.90 C 342.17 299.31 347.94 296.40 352.49 291.90 C 347.18 288.51 340.72 288.37 334.75 286.97 C 338.48 281.38 342.87 276.28 346.90 270.92 C 350.16 266.45 354.13 262.43 356.38 257.29 Z" fill="#29086d" opacity="1.00" stroke="#29086d" stroke-width="0.25" data-index="75" style="opacity: 1; visibility: visible;"></path>
<path d="M 233.99 266.28 C 239.93 264.97 245.97 266.70 251.95 266.78 C 260.72 267.54 269.43 265.80 278.18 265.89 C 279.22 273.47 279.57 281.12 280.12 288.74 C 280.05 291.88 279.76 295.00 279.42 298.12 C 277.94 292.43 278.20 286.46 276.67 280.79 C 275.12 281.46 273.60 282.21 272.13 283.04 C 267.83 279.87 263.44 276.66 258.28 275.04 C 252.00 280.19 244.39 283.80 239.08 290.08 C 234.38 296.45 236.61 304.92 234.39 312.09 C 234.22 311.27 233.87 309.63 233.70 308.81 C 234.62 297.21 233.94 285.54 235.22 273.96 C 235.37 271.36 236.07 268.34 233.99 266.28 Z" fill="#53add7" opacity="1.00" stroke="#53add7" stroke-width="0.25" data-index="76" style="visibility: visible;"></path>
<path d="M 278.18 265.89 C 281.46 267.60 284.64 269.51 287.89 271.29 C 288.25 272.38 288.62 273.48 289.02 274.57 C 286.74 280.75 286.71 287.40 285.85 293.85 C 284.70 302.69 283.61 311.53 282.40 320.36 C 281.30 309.85 281.11 299.27 280.12 288.74 C 279.57 281.12 279.22 273.47 278.18 265.89 Z" fill="#888365" opacity="1.00" stroke="#888365" stroke-width="0.25" data-index="77" style="visibility: visible;"></path>
<path d="M 227.75 270.43 C 229.78 268.97 231.88 267.62 233.99 266.28 C 233.30 277.97 233.33 289.72 232.44 301.41 C 231.77 309.73 231.66 318.09 231.48 326.43 C 231.30 317.82 230.52 309.24 229.30 300.72 C 228.12 292.66 227.54 284.52 226.06 276.51 C 225.51 276.59 224.41 276.75 223.86 276.83 C 224.36 275.47 224.87 274.11 225.43 272.77 C 226.13 271.92 226.91 271.14 227.75 270.43 Z" fill="#cfb780" opacity="1.00" stroke="#cfb780" stroke-width="0.25" data-index="78" style="visibility: visible;"></path>
<path d="M 233.99 266.28 C 236.07 268.34 235.37 271.36 235.22 273.96 C 233.94 285.54 234.62 297.21 233.70 308.81 C 233.25 314.88 233.42 320.98 232.94 327.05 C 232.59 327.42 231.88 328.16 231.53 328.54 C 231.51 328.01 231.49 326.96 231.48 326.43 C 231.66 318.09 231.77 309.73 232.44 301.41 C 233.33 289.72 233.30 277.97 233.99 266.28 Z" fill="#c4d6c9" opacity="1.00" stroke="#c4d6c9" stroke-width="0.25" data-index="79" style="visibility: visible;"></path>
<path d="M 239.08 290.08 C 244.39 283.80 252.00 280.19 258.28 275.04 C 263.44 276.66 267.83 279.87 272.13 283.04 C 273.60 282.21 275.12 281.46 276.67 280.79 C 278.20 286.46 277.94 292.43 279.42 298.12 C 279.76 295.00 280.05 291.88 280.12 288.74 C 281.11 299.27 281.30 309.85 282.40 320.36 C 282.43 322.88 282.46 325.41 282.44 327.94 C 280.83 327.98 279.23 328.04 277.63 328.15 C 277.35 328.17 276.77 328.21 276.49 328.23 C 277.90 327.59 279.29 326.89 280.70 326.22 C 279.61 321.00 279.29 314.83 274.65 311.36 C 271.33 308.67 268.55 305.17 264.68 303.26 C 260.03 302.20 255.06 302.49 250.44 303.57 C 246.34 305.42 243.42 309.06 240.19 312.09 C 235.98 316.00 236.21 322.26 233.83 327.18 L 232.94 327.05 C 233.42 320.98 233.25 314.88 233.70 308.81 C 233.87 309.63 234.22 311.27 234.39 312.09 C 236.61 304.92 234.38 296.45 239.08 290.08 Z" fill="#54b6dd" opacity="1.00" stroke="#54b6dd" stroke-width="0.25" data-index="80" style="visibility: visible;"></path>
<path d="M 285.85 293.85 C 286.71 287.40 286.74 280.75 289.02 274.57 C 292.46 282.83 295.90 291.09 299.09 299.46 C 295.55 304.43 295.79 310.71 294.57 316.44 C 293.85 320.67 292.79 324.85 291.05 328.78 C 289.96 329.03 288.87 329.28 287.79 329.54 C 288.01 330.33 288.23 331.12 288.45 331.93 C 287.88 332.71 287.31 333.50 286.74 334.29 C 285.32 332.16 283.85 330.06 282.44 327.94 C 282.46 325.41 282.43 322.88 282.40 320.36 C 283.61 311.53 284.70 302.69 285.85 293.85 Z" fill="#d3a564" opacity="1.00" stroke="#d3a564" stroke-width="0.25" data-index="81" style="visibility: visible;"></path>
<path d="M 223.86 276.83 C 224.41 276.75 225.51 276.59 226.06 276.51 C 227.54 284.52 228.12 292.66 229.30 300.72 C 230.52 309.24 231.30 317.82 231.48 326.43 C 231.49 326.96 231.51 328.01 231.53 328.54 C 229.79 330.82 228.33 333.31 226.74 335.70 C 226.51 336.05 226.05 336.75 225.81 337.11 C 221.89 341.23 216.88 344.10 212.85 348.11 C 214.19 354.29 216.46 360.20 218.73 366.09 C 219.54 368.75 220.33 371.42 221.04 374.11 C 220.58 374.13 219.66 374.18 219.20 374.20 C 214.58 370.41 211.58 365.13 209.20 359.75 C 206.91 354.43 203.56 349.10 204.31 343.06 C 204.88 335.52 204.73 327.81 206.46 320.43 C 212.10 305.83 218.16 291.40 223.86 276.83 Z" fill="#fcc571" opacity="1.00" stroke="#fcc571" stroke-width="0.25" data-index="82" style="visibility: visible;"></path>
<path d="M 377.22 304.80 C 376.28 296.50 375.96 288.11 376.70 279.78 C 377.33 284.67 379.81 289.00 381.22 293.67 C 382.53 297.97 383.85 302.28 385.44 306.50 C 385.63 307.05 386.02 308.15 386.21 308.70 L 385.48 308.37 C 382.76 307.10 379.97 306.00 377.22 304.80 Z" fill="#c041c9" opacity="1.00" stroke="#c041c9" stroke-width="0.25" data-index="83" style="visibility: visible;"></path>
<path d="M 136.33 281.67 C 137.70 289.39 136.36 297.21 136.09 304.97 C 133.97 305.95 131.78 306.79 129.61 307.67 C 129.14 306.23 128.40 304.74 129.08 303.24 C 131.04 295.90 134.38 289.01 136.33 281.67 Z" fill="#e142d6" opacity="1.00" stroke="#e142d6" stroke-width="0.25" data-index="84" style="visibility: visible;"></path>
<path d="M 161.60 290.54 C 167.51 289.14 173.51 287.61 179.64 287.85 C 185.03 296.62 190.19 305.56 196.07 314.03 C 196.04 314.43 195.97 315.25 195.94 315.65 C 184.41 308.29 173.15 300.52 161.60 293.19 C 161.60 292.30 161.61 291.42 161.60 290.54 Z" fill="#9a29b1" opacity="1.00" stroke="#9a29b1" stroke-width="0.25" data-index="85" style="visibility: visible;"></path>
<path d="M 334.75 286.97 C 340.72 288.37 347.18 288.51 352.49 291.90 C 347.94 296.40 342.17 299.31 336.93 302.90 C 330.85 306.63 325.45 311.37 319.21 314.87 C 319.12 314.17 318.94 312.77 318.85 312.07 C 324.63 304.01 329.06 295.08 334.75 286.97 Z" fill="#4f1d8f" opacity="1.00" stroke="#4f1d8f" stroke-width="0.25" data-index="86" style="opacity: 1; visibility: visible;"></path>
<path d="M 156.35 293.27 C 157.71 292.40 159.34 292.39 160.86 292.78 C 162.61 300.59 166.10 307.84 168.66 315.39 C 169.92 319.13 171.41 322.79 173.04 326.38 C 182.21 326.58 190.99 323.42 199.86 321.52 C 199.30 319.67 198.75 317.83 198.08 316.02 C 199.08 317.00 200.13 317.96 200.98 319.08 C 202.31 320.38 201.11 322.19 200.79 323.67 C 198.84 328.93 197.22 334.32 195.83 339.76 C 193.76 346.50 198.73 352.46 200.34 358.72 C 202.84 368.62 208.95 377.12 211.16 387.12 C 208.04 386.12 205.62 383.84 203.02 381.96 C 198.69 378.62 194.15 375.54 190.03 371.94 C 185.92 368.05 181.62 364.37 177.29 360.74 C 174.42 358.29 171.04 356.42 168.58 353.52 C 160.21 342.86 151.75 332.26 143.41 321.57 C 139.67 316.25 133.72 313.22 128.80 309.16 C 129.01 308.79 129.41 308.04 129.61 307.67 C 131.78 306.79 133.97 305.95 136.09 304.97 C 143.01 301.36 149.44 296.90 156.35 293.27 Z" fill="#0a0135" opacity="1.00" stroke="#0a0135" stroke-width="0.25" data-index="87" style="visibility: visible;"></path>
<path d="M 353.88 292.16 C 356.86 293.55 359.90 294.83 362.88 296.24 C 367.37 299.55 372.11 302.54 377.22 304.80 C 379.97 306.00 382.76 307.10 385.48 308.37 C 381.17 312.84 375.20 315.44 371.50 320.52 C 364.83 329.48 357.96 338.29 351.13 347.14 C 348.37 350.68 345.99 354.64 342.23 357.23 C 332.96 363.83 325.56 372.72 316.00 378.92 C 311.57 381.90 307.58 385.53 302.84 388.04 C 303.93 378.71 309.70 371.05 312.18 362.16 C 313.88 356.31 317.28 351.03 318.52 345.06 C 318.47 337.43 315.30 330.28 312.76 323.21 C 311.16 319.51 314.94 316.62 317.06 314.12 C 315.94 316.37 315.07 318.73 314.19 321.09 C 322.75 324.82 332.44 324.36 340.99 328.07 C 336.39 340.71 328.65 352.10 324.90 365.05 C 327.44 363.64 329.83 361.92 331.70 359.68 C 336.79 353.78 341.76 347.77 347.05 342.04 C 350.56 338.18 355.99 336.16 358.19 331.13 C 361.66 323.97 366.58 317.52 369.00 309.88 C 363.82 311.62 359.45 314.94 354.99 317.98 C 350.90 320.70 347.22 324.39 342.19 325.26 C 343.50 317.36 347.04 310.11 349.50 302.55 C 350.63 298.96 351.97 295.42 353.88 292.16 Z" fill="#090134" opacity="1.00" stroke="#090134" stroke-width="0.25" data-index="88" style="opacity: 1; visibility: visible;"></path>
<path d="M 160.86 292.78 L 161.60 293.19 C 173.15 300.52 184.41 308.29 195.94 315.65 C 195.97 315.25 196.04 314.43 196.07 314.03 C 196.74 314.69 197.41 315.36 198.08 316.02 C 198.75 317.83 199.30 319.67 199.86 321.52 C 190.99 323.42 182.21 326.58 173.04 326.38 C 171.41 322.79 169.92 319.13 168.66 315.39 C 166.10 307.84 162.61 300.59 160.86 292.78 Z" fill="#470b81" opacity="1.00" stroke="#470b81" stroke-width="0.25" data-index="89" style="visibility: visible;"></path>
<path d="M 294.57 316.44 C 295.79 310.71 295.55 304.43 299.09 299.46 C 301.41 304.97 303.55 310.55 305.96 316.03 C 309.87 324.07 309.11 333.27 309.82 341.96 C 310.87 349.23 306.58 355.56 304.01 362.03 C 301.90 367.48 297.75 371.67 293.49 375.50 C 293.25 374.50 293.02 373.50 292.91 372.48 C 294.61 368.32 296.21 364.12 297.60 359.85 C 298.81 355.98 300.48 352.17 300.82 348.09 C 297.73 343.79 292.76 341.41 289.01 337.76 C 288.71 337.31 288.12 336.40 287.82 335.95 C 287.55 335.54 287.01 334.71 286.74 334.29 C 287.31 333.50 287.88 332.71 288.45 331.93 C 288.23 331.12 288.01 330.33 287.79 329.54 C 288.87 329.28 289.96 329.03 291.05 328.78 C 292.79 324.85 293.85 320.67 294.57 316.44 Z" fill="#e7b56a" opacity="1.00" stroke="#e7b56a" stroke-width="0.25" data-index="90" style="visibility: visible;"></path>
<path d="M 250.44 303.57 C 255.06 302.49 260.03 302.20 264.68 303.26 C 268.55 305.17 271.33 308.67 274.65 311.36 C 279.29 314.83 279.61 321.00 280.70 326.22 C 279.29 326.89 277.90 327.59 276.49 328.23 C 275.94 328.30 274.85 328.44 274.31 328.51 C 273.96 328.41 273.28 328.22 272.94 328.13 C 270.00 327.49 266.98 327.51 264.00 327.56 C 255.98 327.71 247.97 327.44 239.96 327.73 C 239.28 327.71 237.91 327.69 237.22 327.67 C 236.09 327.52 234.95 327.36 233.83 327.18 C 236.21 322.26 235.98 316.00 240.19 312.09 C 243.42 309.06 246.34 305.42 250.44 303.57 Z" fill="#56c1e5" opacity="1.00" stroke="#56c1e5" stroke-width="0.25" data-index="91" style="visibility: visible;"></path>
<path d="M 144.04 308.91 C 149.64 310.79 153.80 315.20 158.75 318.23 C 163.91 321.99 170.51 324.66 173.41 330.74 C 176.51 337.22 179.97 343.52 182.83 350.12 C 185.13 355.44 188.43 360.33 189.97 365.96 C 180.57 358.46 173.31 348.66 165.05 339.98 C 162.97 337.98 160.05 337.09 158.05 335.01 C 155.70 331.54 154.06 327.64 151.88 324.07 C 149.17 319.07 145.57 314.46 144.04 308.91 Z" fill="#4d0d85" opacity="1.00" stroke="#4d0d85" stroke-width="0.25" data-index="92" style="visibility: visible;"></path>
<path d="M 231.53 328.54 C 231.88 328.16 232.59 327.42 232.94 327.05 L 233.83 327.18 C 234.95 327.36 236.09 327.52 237.22 327.67 C 234.72 330.28 231.83 332.74 230.39 336.15 C 230.05 337.85 232.08 338.39 233.03 339.37 C 232.24 340.49 231.51 341.65 230.77 342.80 C 228.26 341.24 227.60 338.30 226.74 335.70 C 228.33 333.31 229.79 330.82 231.53 328.54 Z" fill="#0a074a" opacity="1.00" stroke="#0a074a" stroke-width="0.25" data-index="93" style="visibility: visible;"></path>
<path d="M 237.22 327.67 C 237.91 327.69 239.28 327.71 239.96 327.73 C 239.91 328.26 239.82 329.34 239.77 329.87 C 239.27 331.95 238.56 333.97 237.86 335.99 C 236.41 336.91 234.95 337.80 233.54 338.78 L 233.03 339.37 C 232.08 338.39 230.05 337.85 230.39 336.15 C 231.83 332.74 234.72 330.28 237.22 327.67 Z" fill="#f8fafa" opacity="1.00" stroke="#f8fafa" stroke-width="0.25" data-index="94" style="visibility: visible;"></path>
<path d="M 239.96 327.73 C 247.97 327.44 255.98 327.71 264.00 327.56 C 266.98 327.51 270.00 327.49 272.94 328.13 C 272.85 328.75 272.69 330.00 272.60 330.63 C 262.15 335.24 250.09 334.41 239.77 329.87 C 239.82 329.34 239.91 328.26 239.96 327.73 Z" fill="#07047a" opacity="1.00" stroke="#07047a" stroke-width="0.25" data-index="95" style="visibility: visible;"></path>
<path d="M 274.31 328.51 C 274.85 328.44 275.94 328.30 276.49 328.23 C 276.77 328.21 277.35 328.17 277.63 328.15 C 279.49 330.54 281.57 332.75 283.58 335.02 C 283.51 335.91 283.36 337.67 283.29 338.55 C 280.76 338.07 278.34 337.21 276.14 335.89 C 275.43 333.45 274.77 331.00 274.31 328.51 Z" fill="#fbfcf9" opacity="1.00" stroke="#fbfcf9" stroke-width="0.25" data-index="96" style="visibility: visible;"></path>
<path d="M 277.63 328.15 C 279.23 328.04 280.83 327.98 282.44 327.94 C 283.85 330.06 285.32 332.16 286.74 334.29 C 287.01 334.71 287.55 335.54 287.82 335.95 C 286.63 338.42 285.29 340.80 283.80 343.10 C 282.76 341.94 281.74 340.77 280.71 339.62 C 281.61 339.43 283.40 339.05 284.29 338.87 C 284.05 337.58 283.82 336.30 283.58 335.02 C 281.57 332.75 279.49 330.54 277.63 328.15 Z" fill="#070444" opacity="1.00" stroke="#070444" stroke-width="0.25" data-index="97" style="visibility: visible;"></path>
<path d="M 283.58 335.02 C 283.82 336.30 284.05 337.58 284.29 338.87 C 283.40 339.05 281.61 339.43 280.71 339.62 C 277.41 339.95 274.09 339.88 270.78 339.88 C 272.54 338.52 274.33 337.18 276.14 335.89 C 278.34 337.21 280.76 338.07 283.29 338.55 C 283.36 337.67 283.51 335.91 283.58 335.02 Z" fill="#0a0a67" opacity="1.00" stroke="#0a0a67" stroke-width="0.25" data-index="98" style="visibility: visible;"></path>
<path d="M 233.54 338.78 C 234.95 337.80 236.41 336.91 237.86 335.99 C 240.76 337.38 243.58 338.95 246.17 340.86 C 241.85 341.16 237.56 340.35 233.54 338.78 Z" fill="#090659" opacity="1.00" stroke="#090659" stroke-width="0.25" data-index="99" style="visibility: visible;"></path>
<path d="M 212.85 348.11 C 216.88 344.10 221.89 341.23 225.81 337.11 C 226.03 341.82 228.95 345.71 232.26 348.81 C 233.19 350.92 234.34 353.20 233.83 355.57 C 230.96 358.14 227.85 360.46 225.09 363.17 C 223.47 364.94 220.90 363.97 218.85 363.92 C 218.82 364.46 218.76 365.55 218.73 366.09 C 216.46 360.20 214.19 354.29 212.85 348.11 Z" fill="#d06c50" opacity="1.00" stroke="#d06c50" stroke-width="0.25" data-index="100" style="visibility: visible;"></path>
<path d="M 289.01 337.76 C 292.76 341.41 297.73 343.79 300.82 348.09 C 300.48 352.17 298.81 355.98 297.60 359.85 C 292.69 356.70 286.24 357.12 281.77 353.15 C 282.85 350.76 283.89 348.34 285.03 345.97 C 286.40 343.26 287.70 340.51 289.01 337.76 Z" fill="#935a4c" opacity="1.00" stroke="#935a4c" stroke-width="0.25" data-index="101" style="visibility: visible;"></path>
<path d="M 264.26 342.19 C 265.18 340.98 266.63 341.65 267.86 341.81 C 265.86 346.75 264.45 352.47 260.31 356.09 C 260.47 351.34 260.35 345.58 264.26 342.19 Z" fill="#0b0665" opacity="1.00" stroke="#0b0665" stroke-width="0.25" data-index="102" style="visibility: visible;"></path>
<path d="M 248.05 341.99 C 249.21 342.33 250.99 341.99 251.49 343.45 C 253.48 347.71 254.08 352.52 253.75 357.18 C 250.28 353.05 247.86 347.44 248.05 341.99 Z" fill="#0d056b" opacity="1.00" stroke="#0d056b" stroke-width="0.25" data-index="103" style="visibility: visible;"></path>
<path d="M 270.43 355.84 C 275.49 352.86 280.72 350.02 285.03 345.97 C 283.89 348.34 282.85 350.76 281.77 353.15 C 286.24 357.12 292.69 356.70 297.60 359.85 C 296.21 364.12 294.61 368.32 292.91 372.48 C 291.77 372.74 290.64 373.31 289.45 373.20 C 287.27 371.90 285.75 369.79 283.86 368.15 C 280.43 365.02 275.47 364.20 272.21 360.86 C 271.18 359.38 270.97 357.52 270.43 355.84 Z" fill="#81554d" opacity="1.00" stroke="#81554d" stroke-width="0.25" data-index="104" style="visibility: visible;"></path>
<path d="M 232.26 348.81 C 236.55 351.60 241.00 354.11 245.39 356.71 C 245.84 358.37 246.29 360.03 246.74 361.70 C 244.74 364.37 243.10 367.34 240.75 369.72 C 238.23 371.80 235.29 373.30 232.72 375.30 C 228.23 375.21 223.36 376.37 219.20 374.20 C 219.66 374.18 220.58 374.13 221.04 374.11 C 220.33 371.42 219.54 368.75 218.73 366.09 C 218.76 365.55 218.82 364.46 218.85 363.92 C 220.90 363.97 223.47 364.94 225.09 363.17 C 227.85 360.46 230.96 358.14 233.83 355.57 C 234.34 353.20 233.19 350.92 232.26 348.81 Z" fill="#af6350" opacity="1.00" stroke="#af6350" stroke-width="0.25" data-index="105" style="visibility: visible;"></path>
<path d="M 262.39 361.31 C 264.67 358.96 267.65 357.50 270.43 355.84 C 270.97 357.52 271.18 359.38 272.21 360.86 C 275.47 364.20 280.43 365.02 283.86 368.15 C 285.75 369.79 287.27 371.90 289.45 373.20 C 290.64 373.31 291.77 372.74 292.91 372.48 C 293.02 373.50 293.25 374.50 293.49 375.50 C 293.44 376.65 293.37 377.81 293.23 378.96 C 293.00 378.45 292.53 377.43 292.29 376.92 L 291.86 376.04 C 286.30 375.07 280.59 375.82 275.04 374.80 C 269.97 374.01 265.19 372.07 260.51 370.04 C 260.75 367.11 260.14 363.62 262.39 361.31 Z" fill="#74504e" opacity="1.00" stroke="#74504e" stroke-width="0.25" data-index="106" style="visibility: visible;"></path>
<path d="M 245.39 356.71 C 248.13 358.46 251.27 359.99 253.08 362.80 C 254.09 365.20 253.53 367.90 253.56 370.42 C 246.87 372.98 240.03 375.70 232.72 375.30 C 235.29 373.30 238.23 371.80 240.75 369.72 C 243.10 367.34 244.74 364.37 246.74 361.70 C 246.29 360.03 245.84 358.37 245.39 356.71 Z" fill="#985e51" opacity="1.00" stroke="#985e51" stroke-width="0.25" data-index="107" style="visibility: visible;"></path>
<path d="M 220.79 376.98 C 223.53 377.93 226.20 379.10 228.90 380.18 C 230.28 385.35 233.49 389.82 234.62 395.06 C 232.97 394.50 231.35 393.87 229.76 393.19 C 225.10 388.87 223.10 382.70 220.79 376.98 Z" fill="#facd7f" opacity="1.00" stroke="#facd7f" stroke-width="0.25" data-index="108" style="visibility: visible;"></path>
<path d="M 285.94 380.11 C 288.11 379.14 290.20 378.03 292.29 376.92 C 292.53 377.43 293.00 378.45 293.23 378.96 C 290.77 384.56 287.88 390.03 283.37 394.27 C 281.84 394.44 280.31 394.64 278.79 394.88 C 281.12 389.93 283.67 385.08 285.94 380.11 Z" fill="#f6c879" opacity="1.00" stroke="#f6c879" stroke-width="0.25" data-index="109" style="visibility: visible;"></path>
<path d="M 243.79 379.61 C 251.85 378.68 259.99 378.67 268.08 379.27 C 274.03 379.61 279.98 381.24 285.94 380.11 C 283.67 385.08 281.12 389.93 278.79 394.88 C 277.15 395.14 275.51 395.45 273.87 395.70 C 267.92 396.40 261.93 396.57 255.95 396.47 C 254.65 391.57 254.57 386.47 255.46 381.50 C 251.68 380.34 247.76 379.61 243.79 379.61 Z" fill="#6e4d4d" opacity="1.00" stroke="#6e4d4d" stroke-width="0.25" data-index="110" style="visibility: visible;"></path>
<path d="M 228.90 380.18 C 233.87 380.71 238.84 380.05 243.79 379.61 C 247.76 379.61 251.68 380.34 255.46 381.50 C 254.57 386.47 254.65 391.57 255.95 396.47 C 250.64 396.53 245.36 396.03 240.07 395.76 C 238.24 395.62 236.41 395.46 234.62 395.06 C 233.49 389.82 230.28 385.35 228.90 380.18 Z" fill="#88574e" opacity="1.00" stroke="#88574e" stroke-width="0.25" data-index="111" style="visibility: visible;"></path>
<path d="M 229.76 393.19 C 231.35 393.87 232.97 394.50 234.62 395.06 C 236.41 395.46 238.24 395.62 240.07 395.76 C 239.30 395.77 237.76 395.80 236.99 395.82 C 242.68 404.05 249.90 411.07 255.87 419.10 C 251.60 416.41 246.98 414.25 242.98 411.15 C 243.44 411.11 244.36 411.05 244.82 411.02 C 240.01 404.88 233.95 399.82 229.76 393.19 Z" fill="#3d2078" opacity="1.00" stroke="#3d2078" stroke-width="0.25" data-index="112" style="visibility: visible;"></path>
<path d="M 278.79 394.88 C 280.31 394.64 281.84 394.44 283.37 394.27 C 279.89 400.54 273.90 404.80 270.09 410.83 C 270.53 410.90 271.41 411.03 271.86 411.09 C 268.57 413.69 264.91 415.90 260.89 417.13 C 265.45 409.41 272.23 403.37 277.08 395.86 C 276.28 395.82 274.67 395.74 273.87 395.70 C 275.51 395.45 277.15 395.14 278.79 394.88 Z" fill="#37206e" opacity="1.00" stroke="#37206e" stroke-width="0.25" data-index="113" style="visibility: visible;"></path>
<path d="M 236.99 395.82 C 237.76 395.80 239.30 395.77 240.07 395.76 C 245.36 396.03 250.64 396.53 255.95 396.47 C 261.93 396.57 267.92 396.40 273.87 395.70 C 274.67 395.74 276.28 395.82 277.08 395.86 C 272.23 403.37 265.45 409.41 260.89 417.13 C 259.90 418.71 258.29 419.76 256.42 419.83 L 255.87 419.10 C 249.90 411.07 242.68 404.05 236.99 395.82 Z" fill="#02011d" opacity="1.00" stroke="#02011d" stroke-width="0.25" data-index="114" style="visibility: visible;"></path>
</svg>